<svg width="436" height="600" viewBox="0 0 436 600" fill="none" xmlns="http://www.w3.org/2000/svg">
<path fill-rule="evenodd" clip-rule="evenodd" d="M378 1C378 1.55 377.325 2 376.5 2C375.675 2 375 2.45 375 3C375 3.55 374.265 4 373.367 4C372.469 4 371.007 4.833 370.117 5.85201C369.228 6.87101 367.038 8.45701 365.25 9.37801C363.462 10.298 362 11.49 362 12.026C362 12.562 361.199 13 360.221 13C359.242 13 357.793 13.9 357 15C356.207 16.1 354.758 17 353.779 17C352.801 17 352 17.45 352 18C352 18.55 351.325 19 350.5 19C349.675 19 349 19.42 349 19.933C349 20.446 348.153 21.134 347.119 21.462C345.459 21.989 343.952 23.052 339.292 26.981C338.628 27.542 337.615 28 337.042 28C336.469 28 336 28.45 336 29C336 29.55 335.199 30 334.221 30C333.242 30 331.793 30.9 331 32C330.207 33.1 329.138 34 328.624 34C328.109 34 326.214 35.125 324.411 36.5C322.608 37.875 320.753 39 320.287 39C319.822 39 318.793 39.9 318 41C317.207 42.1 315.758 43 314.779 43C313.801 43 313 43.45 313 44C313 44.55 312.325 45 311.5 45C310.675 45 310 45.45 310 46C310 46.55 309.438 47.001 308.75 47.001C307.668 47.002 305.859 48.281 300.292 52.98C299.628 53.541 298.615 54 298.042 54C297.469 54 297 54.45 297 55C297 55.55 296.325 56 295.5 56C294.675 56 294 56.45 294 57C294 57.55 293.325 58 292.5 58C291.675 58 291 58.45 291 59C291 59.55 290.1 60 289 60C287.9 60 286.99 60.337 286.978 60.75C286.966 61.163 284.942 62.85 282.48 64.5C280.018 66.15 278.003 67.837 278.002 68.25C278.001 68.663 277.199 69 276.221 69C275.242 69 273.793 69.9 273 71C272.207 72.1 270.758 73 269.779 73C268.801 73 268 73.45 268 74C268 74.55 267.531 75 266.958 75C266.385 75 265.372 75.459 264.708 76.02C259.141 80.719 257.332 81.998 256.25 81.999C255.563 81.999 255 82.45 255 83C255 83.55 254.325 84 253.5 84C252.675 84 252 84.45 252 85C252 85.55 251.265 86 250.367 86C249.469 86 248.007 86.824 247.117 87.831C246.228 88.838 243.25 90.954 240.5 92.534C237.75 94.113 234.772 96.214 233.883 97.203C232.993 98.191 231.531 99 230.633 99C229.735 99 229 99.45 229 100C229 100.55 228.325 101 227.5 101C226.675 101 226 101.378 226 101.839C226 103.058 221.322 105 218.387 105C215.404 105 212.123 103.396 209.883 100.843C208.993 99.829 207.531 99 206.633 99C205.735 99 205 98.55 205 98C205 97.45 204.325 97 203.5 97C202.675 97 202 96.55 202 96C202 95.45 201.438 94.999 200.75 94.999C200.063 94.998 198.209 93.887 196.63 92.53C195.052 91.172 192.465 89.488 190.88 88.787C189.296 88.086 188 87.172 188 86.756C188 86.34 187.325 86 186.5 86C185.675 86 185 85.55 185 85C185 84.45 184.265 84 183.367 84C182.469 84 181.007 83.181 180.117 82.179C179.228 81.177 177.037 79.505 175.25 78.463C173.462 77.421 172 76.216 172 75.784C172 75.353 171.199 75 170.221 75C169.242 75 167.793 74.1 167 73C166.207 71.9 164.758 71 163.779 71C162.801 71 162 70.55 162 70C162 69.45 161.531 69 160.958 69C160.385 69 159.372 68.542 158.708 67.981C154.048 64.052 152.541 62.989 150.881 62.462C149.847 62.134 149 61.446 149 60.933C149 60.42 148.325 60 147.5 60C146.675 60 146 59.55 146 59C146 58.45 145.199 58 144.221 58C143.242 58 141.793 57.1 141 56C140.207 54.9 139.198 54 138.758 54C137.567 54 129.745 48.795 127.883 46.764C126.993 45.794 125.531 45 124.633 45C123.735 45 123 44.55 123 44C123 43.45 122.325 43 121.5 43C120.675 43 120 42.55 120 42C120 41.45 119.41 41 118.689 41C117.967 41 116.505 40.19 115.439 39.2C114.372 38.21 112.038 36.538 110.25 35.484C108.462 34.431 107 33.216 107 32.784C107 32.353 106.199 32 105.221 32C104.242 32 102.793 31.1 102 30C101.207 28.9 99.758 28 98.779 28C97.801 28 97 27.652 97 27.227C97 26.802 95.425 25.607 93.5 24.57C91.575 23.533 90 22.306 90 21.843C90 21.379 89.199 21 88.221 21C87.242 21 85.793 20.1 85 19C84.207 17.9 82.758 17 81.779 17C80.801 17 80 16.55 80 16C80 15.45 79.531 15 78.958 15C78.385 15 77.372 14.542 76.708 13.981C72.048 10.052 70.541 8.98901 68.881 8.46201C67.847 8.13401 67 7.446 67 6.933C67 6.42 66.325 6 65.5 6C64.675 6 64 5.55 64 5C64 4.45 63.1 4 62 4C60.9 4 60 3.55 60 3C60 2.45 59.1 2 58 2C56.01 2 56 2.66701 56 134.941C56 222.49 56.341 268.093 57 268.5C57.55 268.84 58 270.024 58 271.13C58 273.332 60.192 276 62 276C62.629 276 63.711 276.563 64.406 277.25C65.101 277.938 66.926 279.4 68.461 280.5C69.996 281.6 72.3 283.512 73.58 284.75C74.861 285.987 76.28 287 76.734 287C77.187 287 78.207 287.9 79 289C79.793 290.1 80.929 291 81.525 291C82.121 291 84.385 292.572 86.555 294.494C92.162 299.46 92.844 300 93.503 300C93.826 300 95.216 301.125 96.591 302.5C97.966 303.875 99.488 305 99.974 305C100.46 305 101.452 305.581 102.179 306.291C104.121 308.189 108.326 311 109.223 311C109.65 311 110 262.85 110 204C110 97.667 110.012 97 112 97C113.1 97 114 97.45 114 98C114 98.55 114.675 99 115.5 99C116.325 99 117 99.45 117 100C117 100.55 117.675 101 118.5 101C119.325 101 120 101.45 120 102C120 102.55 120.675 103 121.5 103C122.325 103 123 103.42 123 103.933C123 104.446 123.847 105.134 124.881 105.462C126.541 105.989 128.048 107.052 132.708 110.981C133.372 111.542 134.385 112 134.958 112C135.531 112 136 112.45 136 113C136 113.55 136.801 114 137.779 114C138.758 114 140.207 114.9 141 116C141.793 117.1 143.242 118 144.221 118C145.199 118 146 118.379 146 118.843C146 119.306 147.575 120.533 149.5 121.57C151.425 122.607 153 123.802 153 124.227C153 124.652 153.675 125 154.5 125C155.325 125 156 125.45 156 126C156 126.55 156.675 127 157.5 127C158.325 127 159 127.45 159 128C159 128.55 159.675 129 160.5 129C161.325 129 162 129.45 162 130C162 130.55 162.735 131 163.633 131C164.531 131 165.993 131.819 166.883 132.821C167.772 133.823 169.962 135.495 171.75 136.537C173.538 137.579 175 138.784 175 139.216C175 139.647 175.801 140 176.779 140C177.758 140 179.207 140.9 180 142C180.793 143.1 182.242 144 183.221 144C184.199 144 185 144.45 185 145C185 145.55 185.567 146 186.26 146C186.953 146 188.734 147.125 190.217 148.5C191.699 149.875 193.442 151 194.089 151C194.736 151 195.993 151.791 196.883 152.757C197.772 153.723 199.85 155.185 201.5 156.005C203.15 156.826 204.725 157.724 205 158.001C205.275 158.279 207.525 159.854 210 161.503C212.475 163.151 214.65 164.837 214.833 165.25C215.338 166.386 225 166.148 225 165C225 164.45 225.675 164 226.5 164C227.325 164 228 163.621 228 163.157C228 162.694 229.575 161.467 231.5 160.43C233.425 159.393 235 158.198 235 157.773C235 157.348 235.801 157 236.779 157C237.758 157 239.207 156.1 240 155C240.793 153.9 242.242 153 243.221 153C244.199 153 245 152.55 245 152C245 151.45 245.469 151 246.042 151C246.615 151 247.628 150.542 248.292 149.981C253.003 146.009 254.488 144.98 256.369 144.387C257.541 144.017 259.228 142.878 260.117 141.857C261.007 140.836 262.469 140 263.367 140C264.265 140 265 139.601 265 139.114C265 138.627 266.575 137.48 268.5 136.567C270.425 135.654 272 134.532 272 134.074C272 133.617 273.35 132.683 275 132C276.65 131.317 278 130.362 278 129.879C278 129.395 278.9 129 280 129C281.1 129 282 128.55 282 128C282 127.45 282.675 127 283.5 127C284.325 127 285 126.605 285 126.121C285 125.638 286.35 124.683 288 124C289.65 123.317 291 122.464 291 122.106C291 121.748 292.575 120.607 294.5 119.57C296.425 118.533 298 117.306 298 116.843C298 116.379 298.801 116 299.779 116C300.758 116 302.207 115.1 303 114C303.793 112.9 305.242 112 306.221 112C307.199 112 308 111.621 308 111.157C308 110.694 309.575 109.467 311.5 108.43C313.425 107.393 315 106.198 315 105.773C315 105.348 315.59 105 316.311 105C317.033 105 318.589 104.1 319.77 103C320.95 101.9 322.61 101 323.458 101C324.306 101 325 100.55 325 100C325 99.45 325.675 99 326.5 99C327.325 99 328 98.55 328 98C328 97.45 328.735 97 329.633 97C330.531 97 331.993 96.181 332.883 95.179C333.772 94.177 335.962 92.505 337.75 91.463C339.538 90.421 341 89.216 341 88.784C341 88.353 341.9 88 343 88C344.1 88 345 87.55 345 87C345 86.45 345.675 86 346.5 86C347.325 86 348 85.55 348 85C348 84.45 348.563 83.999 349.25 83.999C350.332 83.998 352.141 82.719 357.708 78.02C358.372 77.459 359.61 77 360.458 77C361.306 77 362 76.55 362 76C362 75.45 362.675 75 363.5 75C364.325 75 365 74.55 365 74C365 73.45 365.691 73 366.536 73C367.38 73 369.068 72.084 370.286 70.964C373.181 68.302 379.827 64 381.044 64C381.57 64 382 63.1 382 62C382 60.9 382.45 60 383 60C383.644 60 384 49.333 384 30V0H381C379.35 0 378 0.45 378 1ZM378.503 134.777C376.854 135.724 374.776 137.288 373.885 138.25C372.994 139.212 371.737 140 371.091 140C370.445 140 369.066 140.788 368.026 141.75C366.986 142.712 364.417 144.394 362.317 145.486C360.218 146.579 357.772 148.266 356.883 149.236C355.993 150.206 354.531 151 353.633 151C352.735 151 352 151.45 352 152C352 152.55 351.325 153 350.5 153C349.675 153 349 153.45 349 154C349 154.55 348.438 155.001 347.75 155.001C346.668 155.002 344.859 156.281 339.292 160.98C338.628 161.541 337.615 162 337.042 162C336.469 162 336 162.45 336 163C336 163.55 335.199 164 334.221 164C333.242 164 331.793 164.9 331 166C330.207 167.1 328.758 168 327.779 168C326.801 168 326 168.353 326 168.784C326 169.216 324.538 170.421 322.75 171.463C320.962 172.505 318.772 174.177 317.883 175.179C316.993 176.181 315.531 177 314.633 177C313.735 177 313 177.45 313 178C313 178.55 312.325 179 311.5 179C310.675 179 310 179.45 310 180C310 180.55 309.265 181 308.367 181C307.469 181 306.007 181.794 305.117 182.764C303.255 184.795 295.433 190 294.242 190C293.802 190 292.793 190.9 292 192C291.207 193.1 289.758 194 288.779 194C287.801 194 287 194.367 287 194.815C287 195.263 285.538 196.385 283.75 197.309C278.988 199.769 276.729 201.285 274.897 203.25C274 204.212 272.531 205 271.633 205C270.735 205 270 205.45 270 206C270 206.55 269.325 207 268.5 207C267.675 207 267 207.45 267 208C267 208.55 266.41 209 265.689 209C264.967 209 263.505 209.788 262.439 210.75C259.87 213.069 252.255 218 251.242 218C250.802 218 249.793 218.9 249 220C248.207 221.1 246.758 222 245.779 222C244.801 222 244 222.45 244 223C244 223.55 243.518 224 242.929 224C242.339 224 241.23 224.563 240.463 225.25C237.134 228.236 236.019 229 234.995 229C233.316 229 224 238.704 224 240.452C224 241.304 223.55 242 223 242C222.356 242 222 252.667 222 272C222 289.515 222.381 302 222.917 302C223.421 302 223.983 301.624 224.167 301.164C224.35 300.705 226.975 298.681 230 296.668C233.025 294.654 236.044 292.555 236.708 292.003C237.372 291.452 238.385 291 238.958 291C239.531 291 240 290.55 240 290C240 289.45 240.675 289 241.5 289C242.325 289 243 288.55 243 288C243 287.45 243.675 287 244.5 287C245.325 287 246 286.605 246 286.121C246 285.638 247.35 284.683 249 284C250.65 283.317 252 282.464 252 282.106C252 281.748 253.575 280.607 255.5 279.57C257.425 278.533 259 277.306 259 276.843C259 276.379 259.801 276 260.779 276C261.758 276 263.207 275.1 264 274C264.793 272.9 265.802 272 266.242 272C267.255 272 274.87 267.069 277.439 264.75C278.505 263.788 279.967 263 280.689 263C281.41 263 282 262.55 282 262C282 261.45 282.675 261 283.5 261C284.325 261 285 260.55 285 260C285 259.45 285.735 259 286.633 259C287.531 259 288.993 258.181 289.883 257.179C290.772 256.177 292.962 254.505 294.75 253.463C296.538 252.421 298 251.216 298 250.784C298 250.353 298.801 250 299.779 250C300.758 250 302.207 249.1 303 248C303.793 246.9 305.242 246 306.221 246C307.199 246 308 245.647 308 245.216C308 244.784 309.462 243.569 311.25 242.516C313.038 241.462 315.372 239.79 316.439 238.8C317.505 237.81 318.967 237 319.689 237C320.41 237 321 236.55 321 236C321 235.45 321.675 235 322.5 235C323.325 235 324 234.55 324 234C324 233.45 324.735 233 325.633 233C326.531 233 327.993 232.181 328.883 231.179C329.772 230.177 331.962 228.505 333.75 227.463C335.538 226.421 337 225.216 337 224.784C337 224.353 337.801 224 338.779 224C339.758 224 341.207 223.1 342 222C342.793 220.9 344.242 220 345.221 220C346.199 220 347 219.621 347 219.157C347 218.694 348.575 217.467 350.5 216.43C352.425 215.393 354 214.252 354 213.894C354 213.536 355.35 212.683 357 212C358.65 211.317 360 210.362 360 209.879C360 209.395 360.675 209 361.5 209C362.325 209 363 208.55 363 208C363 207.45 363.735 207 364.633 207C365.531 207 366.993 206.199 367.883 205.22C368.772 204.241 372.309 201.654 375.741 199.47C379.488 197.087 381.986 194.801 381.991 193.75C381.996 192.788 382.45 192 383 192C383.644 192 384 181.5 384 162.5C384 130.543 384.191 131.506 378.503 134.777ZM268 350C266.625 351.076 265.037 351.966 264.471 351.978C263.905 351.99 262.793 352.9 262 354C261.207 355.1 259.758 356 258.779 356C257.801 356 257 356.45 257 357C257 357.55 256.325 358 255.5 358C254.675 358 254 358.42 254 358.933C254 359.446 253.153 360.134 252.119 360.462C250.459 360.989 248.952 362.052 244.292 365.981C243.628 366.542 242.615 367 242.042 367C241.469 367 241 367.45 241 368C241 368.55 240.199 369 239.221 369C238.242 369 236.793 369.9 236 371C235.207 372.1 234.138 373 233.624 373C233.109 373 231.214 374.125 229.411 375.5C227.608 376.875 225.846 378 225.495 378C225.144 378 224.214 378.643 223.429 379.429C222.252 380.605 222 386.333 222 411.929C222 429.018 222.268 443 222.596 443C223.6 443 229.479 439.548 229.833 438.75C230.017 438.337 230.804 438 231.583 438C232.362 438 233 437.55 233 437C233 436.45 233.735 436 234.633 436C235.531 436 236.993 435.181 237.883 434.179C238.772 433.177 240.962 431.505 242.75 430.463C244.538 429.421 246 428.216 246 427.784C246 427.353 246.801 427 247.779 427C248.758 427 250.207 426.1 251 425C251.793 423.9 253.242 423 254.221 423C255.199 423 256 422.55 256 422C256 421.45 256.469 421 257.042 421C257.615 421 258.628 420.541 259.292 419.98C264.859 415.281 266.668 414.002 267.75 414.001C268.438 414.001 269 413.55 269 413C269 412.45 269.675 412 270.5 412C271.802 412 272 407.778 272 380C272 362.4 271.663 348.01 271.25 348.022C270.837 348.034 269.375 348.924 268 350ZM0 600H69V578H24V509H0V600ZM122.667 509.667C122.3 510.033 122 530.508 122 555.167V600H147V509H135.167C128.658 509 123.033 509.3 122.667 509.667ZM205.667 509.667C205.3 510.033 205 530.508 205 555.167V600H229V575.5C229 561.194 229.384 551 229.923 551C231.098 551 237 556.864 237 558.031C237 558.514 238.125 560.034 239.5 561.409C240.875 562.784 242 564.151 242 564.447C242 565.058 245.403 569.169 248.75 572.602C249.987 573.871 251 575.38 251 575.955C251 576.53 251.45 577 252 577C252.55 577 253 577.675 253 578.5C253 579.325 253.45 580 254 580C254.55 580 255 580.47 255 581.045C255 581.62 256.013 583.139 257.25 584.42C258.487 585.7 260.4 588.011 261.5 589.554C262.6 591.098 264.513 593.384 265.75 594.635C266.987 595.886 268 597.605 268 598.455C268 599.763 269.844 600 280.01 600H292.02L291.5 509.5L266 508.94V531.97C266 544.637 265.663 554.997 265.25 554.993C264.837 554.989 263.375 553.327 262 551.299C260.625 549.272 258.487 546.595 257.25 545.352C256.013 544.108 255 542.62 255 542.045C255 541.47 254.55 541 254 541C253.45 541 253 540.515 253 539.923C253 539.331 251.65 537.496 250 535.846C248.35 534.196 247 532.451 247 531.969C247 531.486 245.875 529.966 244.5 528.591C243.125 527.216 242 525.829 242 525.51C242 525.19 241.086 523.932 239.969 522.714C233.686 515.863 231 512.478 231 511.412C231 510.753 230.288 509.941 229.418 509.607C227.266 508.781 206.5 508.833 205.667 509.667ZM350 600H374V588.455C374 577.879 374.189 576.702 376.25 574.443C377.487 573.087 379.622 570.661 380.992 569.053C383.296 566.349 383.617 566.249 385.242 567.719C386.209 568.594 387 569.816 387 570.434C387 571.053 387.9 572.207 389 573C390.1 573.793 391 575.242 391 576.221C391 577.199 391.353 578 391.784 578C392.216 578 393.421 579.462 394.463 581.25C395.505 583.038 397.177 585.228 398.179 586.117C399.181 587.007 400 588.469 400 589.367C400 590.265 400.45 591 401 591C401.55 591 402 591.675 402 592.5C402 593.325 402.395 594 402.879 594C403.362 594 404.317 595.35 405 597L406.243 600H421.121C429.305 600 436 599.796 436 599.547C436 598.271 433.566 594 432.839 594C432.378 594 432 593.325 432 592.5C432 591.675 431.55 591 431 591C430.45 591 430 590.265 430 589.367C430 588.469 429.181 587.007 428.179 586.117C427.177 585.228 425.505 583.038 424.463 581.25C423.421 579.462 422.216 578 421.784 578C421.353 578 421 577.41 421 576.689C421 575.967 420.1 574.411 419 573.23C417.9 572.05 417 570.489 417 569.763C417 569.036 416.1 567.793 415 567C413.9 566.207 413 565.189 413 564.737C413 564.285 412.542 563.372 411.981 562.708C408.052 558.048 406.989 556.541 406.462 554.881C406.134 553.847 405.446 553 404.933 553C404.42 553 404 552.325 404 551.5C404 550.675 403.55 550 403 550C401.371 550 401.86 546.863 403.761 545.117C404.73 544.228 406.703 541.925 408.146 540C409.589 538.075 412.734 534.402 415.135 531.839C417.536 529.275 420.85 525.525 422.5 523.506C424.15 521.486 426.962 518.311 428.75 516.45C430.538 514.589 432 512.602 432 512.033C432 511.465 432.45 511 433 511C433.55 511 434 510.55 434 510C434 509.381 428.678 509 420.033 509H406.067L402.533 512.533C400.59 514.477 399 516.441 399 516.898C399 517.355 396.75 520.014 394 522.808C391.25 525.602 389 528.385 389 528.992C389 530.115 375.668 544 374.59 544C374.265 544 374 536.125 374 526.5V509H350V600Z" fill="white"/>
</svg>
